<svg width="52" height="52" viewBox="0 0 52 52" fill="none" xmlns="http://www.w3.org/2000/svg">
<path d="M29.0117 37.6134L23.0533 31.655" stroke="#5A7A7E" stroke-width="2" stroke-miterlimit="10" stroke-linecap="round" stroke-linejoin="round"/>
<path d="M28.9467 31.72L22.9883 37.6784" stroke="#5A7A7E" stroke-width="2" stroke-miterlimit="10" stroke-linecap="round" stroke-linejoin="round"/>
<path d="M19.0883 4.33337L11.245 12.1984" stroke="#5A7A7E" stroke-width="2" stroke-miterlimit="10" stroke-linecap="round" stroke-linejoin="round"/>
<path d="M32.9117 4.33337L40.755 12.1984" stroke="#5A7A7E" stroke-width="2" stroke-miterlimit="10" stroke-linecap="round" stroke-linejoin="round"/>
<path d="M4.33337 17.0084C4.33337 13 6.47837 12.675 9.14337 12.675H42.8567C45.5217 12.675 47.6667 13 47.6667 17.0084C47.6667 21.6667 45.5217 21.3417 42.8567 21.3417H9.14337C6.47837 21.3417 4.33337 21.6667 4.33337 17.0084Z" stroke="#5A7A7E" stroke-width="2"/>
<path d="M7.58331 21.6667L10.6383 40.3867C11.3316 44.59 13 47.6667 19.1966 47.6667H32.2616C39 47.6667 39.9966 44.72 40.7766 40.6467L44.4166 21.6667" stroke="#5A7A7E" stroke-width="2" stroke-linecap="round"/>
</svg>
