<svg width="86" height="86" viewBox="0 0 86 86" fill="none" xmlns="http://www.w3.org/2000/svg">
<mask id="mask0_547_20398" style="mask-type:alpha" maskUnits="userSpaceOnUse" x="0" y="0" width="86" height="86">
<rect width="86" height="86" rx="43" fill="#D9D9D9"/>
</mask>
<g mask="url(#mask0_547_20398)">
<rect width="86" height="86" fill="#FA7B3C"/>
<path d="M55.67 31.7663H54.97L49.055 25.8513C48.5825 25.3788 47.8125 25.3788 47.3225 25.8513C46.85 26.3238 46.85 27.0938 47.3225 27.5838L51.505 31.7663H34.495L38.6775 27.5838C39.15 27.1113 39.15 26.3413 38.6775 25.8513C38.205 25.3788 37.435 25.3788 36.945 25.8513L31.0475 31.7663H30.3475C28.7725 31.7663 25.5 31.7663 25.5 36.2463C25.5 37.9438 25.85 39.0638 26.585 39.7988C27.005 40.2363 27.5125 40.4638 28.055 40.5863C28.5625 40.7088 29.105 40.7263 29.63 40.7263H56.37C56.9125 40.7263 57.42 40.6913 57.91 40.5863C59.38 40.2363 60.5 39.1863 60.5 36.2463C60.5 31.7663 57.2275 31.7663 55.67 31.7663Z" fill="white"/>
<path d="M55.3375 43.0013H30.5225C29.4375 43.0013 28.615 43.9638 28.79 45.0313L30.26 54.0263C30.75 57.0363 32.0625 60.5013 37.89 60.5013H47.7075C53.605 60.5013 54.655 57.5438 55.285 54.2363L57.0525 45.0838C57.2625 43.9988 56.44 43.0013 55.3375 43.0013ZM40.5675 54.2888C40.5675 54.9713 40.025 55.5138 39.36 55.5138C38.6775 55.5138 38.135 54.9713 38.135 54.2888V48.5138C38.135 47.8488 38.6775 47.2888 39.36 47.2888C40.025 47.2888 40.5675 47.8488 40.5675 48.5138V54.2888ZM48.0575 54.2888C48.0575 54.9713 47.515 55.5138 46.8325 55.5138C46.1675 55.5138 45.6075 54.9713 45.6075 54.2888V48.5138C45.6075 47.8488 46.1675 47.2888 46.8325 47.2888C47.515 47.2888 48.0575 47.8488 48.0575 48.5138V54.2888Z" fill="white"/>
</g>
</svg>
