<svg width="24" height="24" viewBox="0 0 24 24" fill="none" xmlns="http://www.w3.org/2000/svg">
<path d="M1 22.0001H23" stroke="#001B1A" stroke-width="1.5" stroke-miterlimit="10" stroke-linecap="round" stroke-linejoin="round"/>
<path d="M19.7793 22.0101V17.55" stroke="#001B1A" stroke-width="1.5" stroke-miterlimit="10" stroke-linecap="round" stroke-linejoin="round"/>
<path d="M19.7996 10.8901C18.5796 10.8901 17.5996 11.8701 17.5996 13.0901V15.36C17.5996 16.58 18.5796 17.5601 19.7996 17.5601C21.0196 17.5601 21.9996 16.58 21.9996 15.36V13.0901C21.9996 11.8701 21.0196 10.8901 19.7996 10.8901Z" stroke="#001B1A" stroke-width="1.5" stroke-miterlimit="10" stroke-linecap="round" stroke-linejoin="round"/>
<path d="M2.09961 22.0001V6.03009C2.09961 4.02009 3.09966 3.01007 5.08966 3.01007H11.3196C13.3096 3.01007 14.2996 4.02009 14.2996 6.03009V22.0001" stroke="#001B1A" stroke-width="1.5" stroke-miterlimit="10" stroke-linecap="round" stroke-linejoin="round"/>
<path d="M5.80078 8.25006H10.7508" stroke="#001B1A" stroke-width="1.5" stroke-miterlimit="10" stroke-linecap="round" stroke-linejoin="round"/>
<path d="M5.80078 12.0001H10.7508" stroke="#001B1A" stroke-width="1.5" stroke-miterlimit="10" stroke-linecap="round" stroke-linejoin="round"/>
<path d="M8.25 22.0001V18.2501" stroke="#001B1A" stroke-width="1.5" stroke-miterlimit="10" stroke-linecap="round" stroke-linejoin="round"/>
</svg>
