<svg width="24" height="24" viewBox="0 0 24 24" fill="none" xmlns="http://www.w3.org/2000/svg">
<path d="M21.97 18.3307C21.97 18.6907 21.89 19.0607 21.72 19.4207C21.55 19.7807 21.33 20.1207 21.04 20.4407C20.55 20.9807 20.01 21.3707 19.4 21.6207C18.8 21.8707 18.15 22.0007 17.45 22.0007C16.43 22.0007 15.34 21.7607 14.19 21.2707C13.04 20.7807 11.89 20.1207 10.75 19.2907C9.6 18.4507 8.51 17.5207 7.47 16.4907C6.44 15.4507 5.51 14.3607 4.68 13.2207C3.86 12.0807 3.2 10.9407 2.72 9.81067C2.24 8.67067 2 7.58067 2 6.54067C2 5.86067 2.12 5.21067 2.36 4.61067C2.6 4.00067 2.98 3.44067 3.51 2.94067C4.15 2.31067 4.85 2.00067 5.59 2.00067C5.87 2.00067 6.15 2.06067 6.4 2.18067C6.66 2.30067 6.89 2.48067 7.07 2.74067L9.39 6.01067C9.57 6.26067 9.7 6.49067 9.79 6.71067C9.88 6.92067 9.93 7.13067 9.93 7.32067C9.93 7.56067 9.86 7.80067 9.72 8.03067C9.59 8.26067 9.4 8.50067 9.16 8.74067L8.4 9.53067C8.29 9.64067 8.24 9.77067 8.24 9.93067C8.24 10.0107 8.25 10.0807 8.27 10.1607C8.3 10.2407 8.33 10.3007 8.35 10.3607C8.53 10.6907 8.84 11.1207 9.28 11.6407C9.73 12.1607 10.21 12.6907 10.73 13.2207C11.27 13.7507 11.79 14.2407 12.32 14.6907C12.84 15.1307 13.27 15.4307 13.61 15.6107C13.66 15.6307 13.72 15.6607 13.79 15.6907C13.87 15.7207 13.95 15.7307 14.04 15.7307C14.21 15.7307 14.34 15.6707 14.45 15.5607L15.21 14.8107C15.46 14.5607 15.7 14.3707 15.93 14.2507C16.16 14.1107 16.39 14.0407 16.64 14.0407C16.83 14.0407 17.03 14.0807 17.25 14.1707C17.47 14.2607 17.7 14.3907 17.95 14.5607L21.26 16.9107C21.52 17.0907 21.7 17.3007 21.81 17.5507C21.91 17.8007 21.97 18.0507 21.97 18.3307Z" stroke="#5A7A7E" stroke-width="1.5" stroke-miterlimit="10"/>
</svg>
