<svg width="24" height="24" viewBox="0 0 24 24" fill="none" xmlns="http://www.w3.org/2000/svg">
<path d="M21.97 18.3306C21.97 18.6906 21.89 19.0606 21.72 19.4206C21.55 19.7806 21.33 20.1206 21.04 20.4406C20.55 20.9806 20.01 21.3706 19.4 21.6206C18.8 21.8706 18.15 22.0006 17.45 22.0006C16.43 22.0006 15.34 21.7606 14.19 21.2706C13.04 20.7806 11.89 20.1206 10.75 19.2906C9.6 18.4506 8.51 17.5206 7.47 16.4906C6.44 15.4506 5.51 14.3606 4.68 13.2206C3.86 12.0806 3.2 10.9406 2.72 9.81061C2.24 8.67061 2 7.58061 2 6.54061C2 5.86061 2.12 5.21061 2.36 4.61061C2.6 4.00061 2.98 3.44061 3.51 2.94061C4.15 2.31061 4.85 2.00061 5.59 2.00061C5.87 2.00061 6.15 2.06061 6.4 2.18061C6.66 2.30061 6.89 2.48061 7.07 2.74061L9.39 6.01061C9.57 6.26061 9.7 6.49061 9.79 6.71061C9.88 6.92061 9.93 7.13061 9.93 7.32061C9.93 7.56061 9.86 7.80061 9.72 8.03061C9.59 8.26061 9.4 8.50061 9.16 8.74061L8.4 9.53061C8.29 9.64061 8.24 9.77061 8.24 9.93061C8.24 10.0106 8.25 10.0806 8.27 10.1606C8.3 10.2406 8.33 10.3006 8.35 10.3606C8.53 10.6906 8.84 11.1206 9.28 11.6406C9.73 12.1606 10.21 12.6906 10.73 13.2206C11.27 13.7506 11.79 14.2406 12.32 14.6906C12.84 15.1306 13.27 15.4306 13.61 15.6106C13.66 15.6306 13.72 15.6606 13.79 15.6906C13.87 15.7206 13.95 15.7306 14.04 15.7306C14.21 15.7306 14.34 15.6706 14.45 15.5606L15.21 14.8106C15.46 14.5606 15.7 14.3706 15.93 14.2506C16.16 14.1106 16.39 14.0406 16.64 14.0406C16.83 14.0406 17.03 14.0806 17.25 14.1706C17.47 14.2606 17.7 14.3906 17.95 14.5606L21.26 16.9106C21.52 17.0906 21.7 17.3006 21.81 17.5506C21.91 17.8006 21.97 18.0506 21.97 18.3306Z" stroke="#001B1A" stroke-width="1.5" stroke-miterlimit="10"/>
</svg>
