<svg width="24" height="24" viewBox="0 0 24 24" fill="none" xmlns="http://www.w3.org/2000/svg">
<path d="M12 2.00049C6.49 2.00049 2 6.49049 2 12.0005C2 17.5105 6.49 22.0005 12 22.0005C17.51 22.0005 22 17.5105 22 12.0005C22 6.49049 17.51 2.00049 12 2.00049ZM15.36 14.3005C15.65 14.5905 15.65 15.0705 15.36 15.3605C15.21 15.5105 15.02 15.5805 14.83 15.5805C14.64 15.5805 14.45 15.5105 14.3 15.3605L12 13.0605L9.7 15.3605C9.55 15.5105 9.36 15.5805 9.17 15.5805C8.98 15.5805 8.79 15.5105 8.64 15.3605C8.35 15.0705 8.35 14.5905 8.64 14.3005L10.94 12.0005L8.64 9.70049C8.35 9.41049 8.35 8.93049 8.64 8.64049C8.93 8.35049 9.41 8.35049 9.7 8.64049L12 10.9405L14.3 8.64049C14.59 8.35049 15.07 8.35049 15.36 8.64049C15.65 8.93049 15.65 9.41049 15.36 9.70049L13.06 12.0005L15.36 14.3005Z" fill="#FF5070"/>
</svg>
