<svg width="48" height="48" viewBox="0 0 48 48" fill="none" xmlns="http://www.w3.org/2000/svg">
<rect width="48" height="48" rx="24" fill="#F1FAE6"/>
<path d="M14 27.29V17.71C14 16.38 14.77 16.06 15.71 17L18.3 19.59C18.69 19.98 19.33 19.98 19.71 19.59L23.29 16C23.68 15.61 24.32 15.61 24.7 16L28.29 19.59C28.68 19.98 29.32 19.98 29.7 19.59L32.29 17C33.23 16.06 34 16.38 34 17.71V27.3C34 30.3 32 32.3 29 32.3H19C16.24 32.29 14 30.05 14 27.29Z" stroke="#34613A" stroke-width="1.5" stroke-linecap="round" stroke-linejoin="round"/>
</svg>
