<svg width="86" height="86" viewBox="0 0 86 86" fill="none" xmlns="http://www.w3.org/2000/svg">
<mask id="mask0_549_8208" style="mask-type:alpha" maskUnits="userSpaceOnUse" x="0" y="0" width="86" height="86">
<rect width="86" height="86" rx="43" fill="#D9D9D9"/>
</mask>
<g mask="url(#mask0_549_8208)">
<rect width="86" height="86" fill="#FA7B3C"/>
<path d="M57.875 39.8336H52.8175C48.67 39.8336 45.2925 36.4561 45.2925 32.3086V27.2511C45.2925 26.2886 44.505 25.5011 43.5425 25.5011H36.1225C30.7325 25.5011 26.375 29.0011 26.375 35.2486V50.7536C26.375 57.0011 30.7325 60.5011 36.1225 60.5011H49.8775C55.2675 60.5011 59.625 57.0011 59.625 50.7536V41.5836C59.625 40.6211 58.8375 39.8336 57.875 39.8336ZM43.49 49.6161L39.99 53.1161C39.8675 53.2386 39.71 53.3436 39.5525 53.3961C39.395 53.4661 39.2375 53.5011 39.0625 53.5011C38.8875 53.5011 38.73 53.4661 38.5725 53.3961C38.4325 53.3436 38.2925 53.2386 38.1875 53.1336C38.17 53.1161 38.1525 53.1161 38.1525 53.0986L34.6525 49.5986C34.145 49.0911 34.145 48.2511 34.6525 47.7436C35.16 47.2361 36 47.2361 36.5075 47.7436L37.75 49.0211V41.6886C37.75 40.9711 38.345 40.3761 39.0625 40.3761C39.78 40.3761 40.375 40.9711 40.375 41.6886V49.0211L41.635 47.7611C42.1425 47.2536 42.9825 47.2536 43.49 47.7611C43.9975 48.2686 43.9975 49.1086 43.49 49.6161Z" fill="white"/>
<path d="M52.5024 37.4186C54.1649 37.4361 56.4749 37.4361 58.4524 37.4361C59.4499 37.4361 59.9749 36.2636 59.2749 35.5636C56.7549 33.0261 52.2399 28.4586 49.6499 25.8686C48.9324 25.1511 47.6899 25.6411 47.6899 26.6386V32.7461C47.6899 35.3011 49.8599 37.4186 52.5024 37.4186Z" fill="white"/>
</g>
</svg>
