<svg width="18" height="18" viewBox="0 0 18 18" fill="none" xmlns="http://www.w3.org/2000/svg">
<path d="M12.75 10.0502V12.3002C12.75 15.3002 11.55 16.5002 8.55 16.5002H5.7C2.7 16.5002 1.5 15.3002 1.5 12.3002V9.45024C1.5 6.45024 2.7 5.25024 5.7 5.25024H7.95" stroke="#34613A" stroke-width="1.5" stroke-linecap="round" stroke-linejoin="round"/>
<path d="M12.7502 10.0502H10.3502C8.5502 10.0502 7.9502 9.45024 7.9502 7.65024V5.25024L12.7502 10.0502Z" stroke="#34613A" stroke-width="1.5" stroke-linecap="round" stroke-linejoin="round"/>
<path d="M8.7002 1.50024H11.7002" stroke="#34613A" stroke-width="1.5" stroke-linecap="round" stroke-linejoin="round"/>
<path d="M5.25 3.75024C5.25 2.50524 6.255 1.50024 7.5 1.50024H9.465" stroke="#34613A" stroke-width="1.5" stroke-linecap="round" stroke-linejoin="round"/>
<path d="M16.5001 6.00024V10.6427C16.5001 11.8052 15.5551 12.7502 14.3926 12.7502" stroke="#34613A" stroke-width="1.5" stroke-linecap="round" stroke-linejoin="round"/>
<path d="M16.5 6.00024H14.25C12.5625 6.00024 12 5.43774 12 3.75024V1.50024L16.5 6.00024Z" stroke="#34613A" stroke-width="1.5" stroke-linecap="round" stroke-linejoin="round"/>
</svg>
