<svg width="24" height="24" viewBox="0 0 24 24" fill="none" xmlns="http://www.w3.org/2000/svg">
<path d="M11 2.00008H9C4 2.00008 2 4.00008 2 9.00008V15.0001C2 20.0001 4 22.0001 9 22.0001H15C20 22.0001 22 20.0001 22 15.0001V13.0001" stroke="#5A7A7E" stroke-width="1.5" stroke-linecap="round" stroke-linejoin="round"/>
<path d="M16.0399 3.02007L8.15988 10.9001C7.85988 11.2001 7.55988 11.7901 7.49988 12.2201L7.06988 15.2301C6.90988 16.3201 7.67988 17.0801 8.76988 16.9301L11.7799 16.5001C12.1999 16.4401 12.7899 16.1401 13.0999 15.8401L20.9799 7.96007C22.3399 6.60007 22.9799 5.02007 20.9799 3.02007C18.9799 1.02007 17.3999 1.66007 16.0399 3.02007Z" stroke="#5A7A7E" stroke-width="1.5" stroke-miterlimit="10" stroke-linecap="round" stroke-linejoin="round"/>
<path d="M14.9102 4.15007C15.5802 6.54007 17.4502 8.41007 19.8502 9.09007" stroke="#5A7A7E" stroke-width="1.5" stroke-miterlimit="10" stroke-linecap="round" stroke-linejoin="round"/>
</svg>
