<svg width="52" height="53" viewBox="0 0 52 53" fill="none" xmlns="http://www.w3.org/2000/svg">
<path d="M32.282 4.83333H19.7154C18.242 4.83333 16.162 5.70001 15.122 6.74001L6.23871 15.6234C5.19871 16.6634 4.33203 18.7433 4.33203 20.2167V32.7833C4.33203 34.2567 5.19871 36.3366 6.23871 37.3766L15.122 46.26C16.162 47.3 18.242 48.1667 19.7154 48.1667H32.282C33.7554 48.1667 35.8354 47.3 36.8754 46.26L45.7587 37.3766C46.7987 36.3366 47.6654 34.2567 47.6654 32.7833V20.2167C47.6654 18.7433 46.7987 16.6634 45.7587 15.6234L36.8754 6.74001C35.8354 5.70001 33.7554 4.83333 32.282 4.83333Z" stroke="#5A7A7E" stroke-width="2" stroke-linecap="round" stroke-linejoin="round"/>
<path d="M18.418 34.0833L33.5846 18.9167" stroke="#5A7A7E" stroke-width="2" stroke-linecap="round" stroke-linejoin="round"/>
<path d="M33.5846 34.0833L18.418 18.9167" stroke="#5A7A7E" stroke-width="2" stroke-linecap="round" stroke-linejoin="round"/>
</svg>
