<svg width="86" height="86" viewBox="0 0 86 86" fill="none" xmlns="http://www.w3.org/2000/svg">
<mask id="mask0_344_12229" style="mask-type:alpha" maskUnits="userSpaceOnUse" x="0" y="0" width="86" height="86">
<rect width="86" height="86" rx="43" fill="#D9D9D9"/>
</mask>
<g mask="url(#mask0_344_12229)">
<rect width="86" height="86" fill="#FA7B3C"/>
<path d="M57 43.0013V53.5013C57 57.3688 53.8675 60.5013 50 60.5013H36C32.1325 60.5013 29 57.3688 29 53.5013V43.0013C29 42.0388 29.7875 41.2513 30.75 41.2513H34.1975C35.16 41.2513 35.9475 42.0388 35.9475 43.0013V48.4963C35.9475 49.7913 36.665 50.9813 37.8025 51.5938C38.31 51.8738 38.87 52.0138 39.4475 52.0138C40.1125 52.0138 40.7775 51.8213 41.355 51.4363L43.0175 50.3513L44.5575 51.3838C45.625 52.1013 46.99 52.1888 48.1275 51.5763C49.2825 50.9638 50 49.7913 50 48.4788V43.0013C50 42.0388 50.7875 41.2513 51.75 41.2513H55.25C56.2125 41.2513 57 42.0388 57 43.0013Z" fill="white"/>
<path d="M59.625 34.2513V36.0013C59.625 37.9263 58.6975 39.5013 56.125 39.5013H29.875C27.1975 39.5013 26.375 37.9263 26.375 36.0013V34.2513C26.375 32.3263 27.1975 30.7513 29.875 30.7513H56.125C58.6975 30.7513 59.625 32.3263 59.625 34.2513Z" fill="white"/>
<path d="M42.3701 30.7513H32.7101C32.1151 30.1038 32.1326 29.1063 32.7626 28.4763L35.2476 25.9913C35.8951 25.3438 36.9626 25.3438 37.6101 25.9913L42.3701 30.7513Z" fill="white"/>
<path d="M53.2725 30.7513H43.6125L48.3725 25.9913C49.02 25.3438 50.0875 25.3438 50.735 25.9913L53.22 28.4763C53.85 29.1063 53.8675 30.1038 53.2725 30.7513Z" fill="white"/>
<path d="M46.4475 41.2513C47.41 41.2513 48.1975 42.0388 48.1975 43.0013V48.4788C48.1975 49.8788 46.64 50.7188 45.485 49.9313L43.91 48.8813C43.3325 48.4963 42.58 48.4963 41.985 48.8813L40.34 49.9663C39.185 50.7363 37.645 49.8963 37.645 48.5138V43.0013C37.645 42.0388 38.4325 41.2513 39.395 41.2513H46.4475Z" fill="white"/>
</g>
</svg>
