<svg width="24" height="24" viewBox="0 0 24 24" fill="none" xmlns="http://www.w3.org/2000/svg">
<path d="M8.96973 22.0002H14.9697C19.9697 22.0002 21.9697 20.0002 21.9697 15.0002V9.00015C21.9697 4.00015 19.9697 2.00015 14.9697 2.00015H8.96973C3.96973 2.00015 1.96973 4.00015 1.96973 9.00015V15.0002C1.96973 20.0002 3.96973 22.0002 8.96973 22.0002Z" stroke="#5A7A7E" stroke-width="1.5" stroke-linecap="round" stroke-linejoin="round"/>
<path d="M1.96973 12.7002L7.96973 12.6802C8.71973 12.6802 9.55973 13.2502 9.83973 13.9502L10.9797 16.8302C11.2397 17.4802 11.6497 17.4802 11.9097 16.8302L14.1997 11.0202C14.4197 10.4602 14.8297 10.4402 15.1097 10.9702L16.1497 12.9402C16.4597 13.5302 17.2597 14.0102 17.9197 14.0102H21.9797" stroke="#5A7A7E" stroke-width="1.5" stroke-linecap="round" stroke-linejoin="round"/>
</svg>
