<svg width="24" height="24" viewBox="0 0 24 24" fill="none" xmlns="http://www.w3.org/2000/svg">
<path d="M7.5 4.00024H16.5C17.12 4.00024 17.67 4.02024 18.16 4.09024C20.79 4.38024 21.5 5.62024 21.5 9.00024V15.0002C21.5 18.3802 20.79 19.6202 18.16 19.9102C17.67 19.9802 17.12 20.0002 16.5 20.0002H7.5C6.88 20.0002 6.33 19.9802 5.84 19.9102C3.21 19.6202 2.5 18.3802 2.5 15.0002V9.00024C2.5 5.62024 3.21 4.38024 5.84 4.09024C6.33 4.02024 6.88 4.00024 7.5 4.00024Z" stroke="#001B1A" stroke-width="1.5" stroke-linecap="round" stroke-linejoin="round"/>
<path d="M13.5 10.0002H17" stroke="#001B1A" stroke-width="1.5" stroke-linecap="round" stroke-linejoin="round"/>
<path d="M7 15.5002H7.02H17" stroke="#001B1A" stroke-width="1.5" stroke-linecap="round" stroke-linejoin="round"/>
<path d="M10.0941 10.0002H10.1031" stroke="#001B1A" stroke-width="2" stroke-linecap="round" stroke-linejoin="round"/>
<path d="M7.09412 10.0002H7.1031" stroke="#001B1A" stroke-width="2" stroke-linecap="round" stroke-linejoin="round"/>
</svg>
