<svg width="24" height="24" viewBox="0 0 24 24" fill="none" xmlns="http://www.w3.org/2000/svg">
<path d="M7.5 4.00006H16.5C17.12 4.00006 17.67 4.02006 18.16 4.09006C20.79 4.38006 21.5 5.62006 21.5 9.00006V15.0001C21.5 18.3801 20.79 19.6201 18.16 19.9101C17.67 19.9801 17.12 20.0001 16.5 20.0001H7.5C6.88 20.0001 6.33 19.9801 5.84 19.9101C3.21 19.6201 2.5 18.3801 2.5 15.0001V9.00006C2.5 5.62006 3.21 4.38006 5.84 4.09006C6.33 4.02006 6.88 4.00006 7.5 4.00006Z" stroke="#34613A" stroke-width="1.5" stroke-linecap="round" stroke-linejoin="round"/>
<path d="M13.5 10.0001H17" stroke="#34613A" stroke-width="1.5" stroke-linecap="round" stroke-linejoin="round"/>
<path d="M7 15.5001H7.02H17" stroke="#34613A" stroke-width="1.5" stroke-linecap="round" stroke-linejoin="round"/>
<path d="M10.0946 10.0001H10.1036" stroke="#34613A" stroke-width="2" stroke-linecap="round" stroke-linejoin="round"/>
<path d="M7.0946 10.0001H7.10359" stroke="#34613A" stroke-width="2" stroke-linecap="round" stroke-linejoin="round"/>
</svg>
