<svg width="108" height="24" viewBox="0 0 108 24" fill="none" xmlns="http://www.w3.org/2000/svg">
<mask id="mask0_704_31628" style="mask-type:alpha" maskUnits="userSpaceOnUse" x="0" y="0" width="24" height="24">
<rect y="3.05176e-05" width="24" height="24" rx="12" fill="#D9D9D9"/>
</mask>
<g mask="url(#mask0_704_31628)">
<rect y="3.05176e-05" width="24" height="24" rx="12" fill="#ECF4F9"/>
<rect y="3.05176e-05" width="24" height="24" fill="#2F80C1"/>
<path d="M11.9172 6.82489V17.0077M16.1176 8.78555V15.1102M7.7168 8.78555V15.1102" stroke="white" stroke-width="1.75016" stroke-linecap="round"/>
</g>
<path d="M30.431 18.5V5.90003H32.897L37.487 13.37L35.867 13.352L40.511 5.90003H42.869V18.5H40.223V14.18C40.223 13.1 40.247 12.128 40.295 11.264C40.355 10.4 40.451 9.54203 40.583 8.69003L40.907 9.53603L37.217 15.26H36.029L32.411 9.57203L32.717 8.69003C32.849 9.49403 32.939 10.322 32.987 11.174C33.047 12.014 33.077 13.016 33.077 14.18V18.5H30.431ZM46.0018 18.5V8.97803H48.5578V18.5H46.0018ZM47.2618 7.01603C46.7698 7.01603 46.3858 6.89603 46.1098 6.65603C45.8338 6.41603 45.6958 6.07403 45.6958 5.63003C45.6958 5.22203 45.8338 4.89203 46.1098 4.64003C46.3978 4.37603 46.7818 4.24403 47.2618 4.24403C47.7538 4.24403 48.1378 4.37003 48.4138 4.62203C48.6898 4.86203 48.8278 5.19803 48.8278 5.63003C48.8278 6.05003 48.6838 6.38603 48.3958 6.63803C48.1198 6.89003 47.7418 7.01603 47.2618 7.01603ZM55.0138 18.68C54.1858 18.68 53.4418 18.47 52.7818 18.05C52.1218 17.618 51.5998 17.036 51.2158 16.304C50.8438 15.56 50.6578 14.702 50.6578 13.73C50.6578 12.782 50.8438 11.936 51.2158 11.192C51.5998 10.448 52.1158 9.86003 52.7638 9.42803C53.4238 8.99603 54.1738 8.78003 55.0138 8.78003C55.4578 8.78003 55.8838 8.85203 56.2918 8.99603C56.7118 9.12803 57.0838 9.31403 57.4078 9.55403C57.7438 9.79403 58.0138 10.064 58.2178 10.364C58.4218 10.652 58.5358 10.958 58.5598 11.282L57.9118 11.39V5.18003H60.4678V18.5H58.0558L57.9478 16.304L58.4518 16.358C58.4278 16.658 58.3198 16.946 58.1278 17.222C57.9358 17.498 57.6778 17.75 57.3538 17.978C57.0418 18.194 56.6818 18.368 56.2738 18.5C55.8778 18.62 55.4578 18.68 55.0138 18.68ZM55.5898 16.556C56.0698 16.556 56.4898 16.436 56.8498 16.196C57.2098 15.956 57.4918 15.626 57.6958 15.206C57.8998 14.786 58.0018 14.294 58.0018 13.73C58.0018 13.178 57.8998 12.692 57.6958 12.272C57.4918 11.84 57.2098 11.51 56.8498 11.282C56.4898 11.042 56.0698 10.922 55.5898 10.922C55.1098 10.922 54.6898 11.042 54.3298 11.282C53.9818 11.51 53.7058 11.84 53.5018 12.272C53.3098 12.692 53.2138 13.178 53.2138 13.73C53.2138 14.294 53.3098 14.786 53.5018 15.206C53.7058 15.626 53.9818 15.956 54.3298 16.196C54.6898 16.436 55.1098 16.556 55.5898 16.556ZM63.8776 18.5V6.56603H66.4336V18.5H63.8776ZM62.0956 11.264V8.97803H68.3776V11.264H62.0956ZM70.0436 18.5V8.97803H72.5096L72.5996 12.038L72.1676 11.408C72.3116 10.916 72.5456 10.472 72.8696 10.076C73.1936 9.66803 73.5716 9.35003 74.0036 9.12203C74.4476 8.89403 74.9096 8.78003 75.3896 8.78003C75.5936 8.78003 75.7916 8.79803 75.9836 8.83403C76.1756 8.87003 76.3376 8.91203 76.4696 8.96003L75.7856 11.768C75.6416 11.696 75.4676 11.636 75.2636 11.588C75.0596 11.528 74.8496 11.498 74.6336 11.498C74.3456 11.498 74.0756 11.552 73.8236 11.66C73.5836 11.756 73.3736 11.9 73.1936 12.092C73.0136 12.272 72.8696 12.488 72.7616 12.74C72.6656 12.992 72.6176 13.268 72.6176 13.568V18.5H70.0436ZM81.0959 18.68C80.3039 18.68 79.5899 18.464 78.9539 18.032C78.3179 17.6 77.8139 17.012 77.4419 16.268C77.0699 15.524 76.8839 14.672 76.8839 13.712C76.8839 12.752 77.0699 11.906 77.4419 11.174C77.8259 10.43 78.3419 9.84803 78.9899 9.42803C79.6379 8.99603 80.3759 8.78003 81.2039 8.78003C81.6719 8.78003 82.0979 8.85203 82.4819 8.99603C82.8779 9.12803 83.2199 9.31403 83.5079 9.55403C83.8079 9.79403 84.0599 10.07 84.2639 10.382C84.4679 10.694 84.6119 11.03 84.6959 11.39L84.1559 11.3V8.97803H86.6939V18.5H84.1199V16.214L84.6959 16.16C84.5999 16.496 84.4439 16.814 84.2279 17.114C84.0119 17.414 83.7419 17.684 83.4179 17.924C83.1059 18.152 82.7519 18.338 82.3559 18.482C81.9599 18.614 81.5399 18.68 81.0959 18.68ZM81.7979 16.466C82.2779 16.466 82.6979 16.352 83.0579 16.124C83.4179 15.896 83.6939 15.578 83.8859 15.17C84.0899 14.75 84.1919 14.264 84.1919 13.712C84.1919 13.172 84.0899 12.698 83.8859 12.29C83.6939 11.882 83.4179 11.564 83.0579 11.336C82.6979 11.096 82.2779 10.976 81.7979 10.976C81.3299 10.976 80.9159 11.096 80.5559 11.336C80.2079 11.564 79.9319 11.882 79.7279 12.29C79.5239 12.698 79.4219 13.172 79.4219 13.712C79.4219 14.264 79.5239 14.75 79.7279 15.17C79.9319 15.578 80.2079 15.896 80.5559 16.124C80.9159 16.352 81.3299 16.466 81.7979 16.466ZM89.2565 18.5V8.97803H91.7045L91.7765 10.922L91.2725 11.138C91.4045 10.706 91.6385 10.316 91.9745 9.96803C92.3225 9.60803 92.7365 9.32003 93.2165 9.10403C93.6965 8.88803 94.2005 8.78003 94.7285 8.78003C95.4485 8.78003 96.0485 8.92403 96.5285 9.21203C97.0205 9.50003 97.3865 9.93803 97.6265 10.526C97.8785 11.102 98.0045 11.816 98.0045 12.668V18.5H95.4485V12.866C95.4485 12.434 95.3885 12.074 95.2685 11.786C95.1485 11.498 94.9625 11.288 94.7105 11.156C94.4705 11.012 94.1705 10.952 93.8105 10.976C93.5225 10.976 93.2525 11.024 93.0005 11.12C92.7605 11.204 92.5505 11.33 92.3705 11.498C92.2025 11.666 92.0645 11.858 91.9565 12.074C91.8605 12.29 91.8125 12.524 91.8125 12.776V18.5H90.5525C90.2765 18.5 90.0305 18.5 89.8145 18.5C89.5985 18.5 89.4125 18.5 89.2565 18.5ZM103.658 18.68C102.77 18.68 101.978 18.536 101.282 18.248C100.598 17.948 100.046 17.54 99.6258 17.024L101.21 15.656C101.582 16.052 101.996 16.34 102.452 16.52C102.908 16.688 103.364 16.772 103.82 16.772C104 16.772 104.162 16.754 104.306 16.718C104.462 16.67 104.594 16.61 104.702 16.538C104.81 16.454 104.888 16.358 104.936 16.25C104.996 16.13 105.026 16.004 105.026 15.872C105.026 15.608 104.918 15.398 104.702 15.242C104.582 15.182 104.396 15.11 104.144 15.026C103.892 14.93 103.568 14.828 103.172 14.72C102.56 14.564 102.038 14.384 101.606 14.18C101.186 13.964 100.85 13.724 100.598 13.46C100.382 13.208 100.214 12.938 100.094 12.65C99.9858 12.35 99.9318 12.02 99.9318 11.66C99.9318 11.228 100.028 10.838 100.22 10.49C100.412 10.13 100.676 9.82403 101.012 9.57203C101.36 9.32003 101.756 9.12803 102.2 8.99603C102.644 8.85203 103.112 8.78003 103.604 8.78003C104.096 8.78003 104.576 8.84003 105.044 8.96003C105.512 9.08003 105.944 9.25403 106.34 9.48203C106.748 9.69803 107.102 9.95603 107.402 10.256L106.034 11.768C105.818 11.564 105.572 11.378 105.296 11.21C105.032 11.042 104.756 10.91 104.468 10.814C104.18 10.718 103.922 10.67 103.694 10.67C103.49 10.67 103.304 10.688 103.136 10.724C102.98 10.76 102.848 10.814 102.74 10.886C102.632 10.958 102.548 11.054 102.488 11.174C102.44 11.282 102.416 11.402 102.416 11.534C102.416 11.666 102.446 11.792 102.506 11.912C102.578 12.032 102.674 12.134 102.794 12.218C102.926 12.29 103.118 12.374 103.37 12.47C103.634 12.566 103.988 12.674 104.432 12.794C105.008 12.95 105.494 13.124 105.89 13.316C106.298 13.508 106.622 13.73 106.862 13.982C107.066 14.198 107.216 14.444 107.312 14.72C107.408 14.996 107.456 15.302 107.456 15.638C107.456 16.226 107.288 16.754 106.952 17.222C106.628 17.678 106.178 18.038 105.602 18.302C105.026 18.554 104.378 18.68 103.658 18.68Z" fill="#2F80C1"/>
</svg>
