<svg width="24" height="24" viewBox="0 0 24 24" fill="none" xmlns="http://www.w3.org/2000/svg">
<path d="M18 15.0002V19.0002C18 20.6502 16.65 22.0002 15 22.0002H9C7.35 22.0002 6 20.6502 6 19.0002V13.9802L9.89001 14.0002C10.62 14.0002 11.34 14.1702 12 14.5002C12.66 14.8302 13.38 15.0002 14.12 15.0002H18Z" stroke="#34613A" stroke-width="1.5" stroke-linecap="round" stroke-linejoin="round"/>
<path d="M18 10.8302V15.0002H14.12C13.38 15.0002 12.66 14.8302 12 14.5002C11.34 14.1702 10.62 14.0002 9.89001 14.0002L6 13.9802V10.8302C6 10.3702 6.26003 9.74025 6.59003 9.41025L8.71002 7.29024C8.89002 7.11024 9 6.85024 9 6.59024V5.00024H15V6.59024C15 6.85024 15.11 7.11024 15.29 7.29024L17.41 9.41025C17.74 9.74025 18 10.3702 18 10.8302Z" stroke="#34613A" stroke-width="1.5" stroke-linecap="round" stroke-linejoin="round"/>
<path d="M18 16.0002V15.0002" stroke="#34613A" stroke-width="1.5" stroke-linecap="round" stroke-linejoin="round"/>
<path d="M6 14.9802V13.9802" stroke="#34613A" stroke-width="1.5" stroke-linecap="round" stroke-linejoin="round"/>
<path d="M14.5 5.00024H9.5C8.67 5.00024 8 4.32024 8 3.50024C8 2.68024 8.67 2.00024 9.5 2.00024H14.5C15.33 2.00024 16 2.68024 16 3.50024C16 4.32024 15.33 5.00024 14.5 5.00024Z" stroke="#34613A" stroke-width="1.5" stroke-linecap="round" stroke-linejoin="round"/>
</svg>
