<svg width="24" height="24" viewBox="0 0 24 24" fill="none" xmlns="http://www.w3.org/2000/svg">
<path d="M20 8.25012V18.0001C20 21.0001 18.21 22.0001 16 22.0001H8C5.79 22.0001 4 21.0001 4 18.0001V8.25012C4 5.00012 5.79 4.25012 8 4.25012C8 4.87012 8.24997 5.43012 8.65997 5.84012C9.06997 6.25012 9.63 6.50012 10.25 6.50012H13.75C14.99 6.50012 16 5.49012 16 4.25012C18.21 4.25012 20 5.00012 20 8.25012Z" stroke="#34613A" stroke-width="1.5" stroke-linecap="round" stroke-linejoin="round"/>
<path d="M16 4.25012C16 5.49012 14.99 6.50012 13.75 6.50012H10.25C9.63 6.50012 9.06997 6.25012 8.65997 5.84012C8.24997 5.43012 8 4.87012 8 4.25012C8 3.01012 9.01 2.00012 10.25 2.00012H13.75C14.37 2.00012 14.93 2.25013 15.34 2.66013C15.75 3.07013 16 3.63012 16 4.25012Z" stroke="#34613A" stroke-width="1.5" stroke-linecap="round" stroke-linejoin="round"/>
<path d="M8 13.0001H12" stroke="#34613A" stroke-width="1.5" stroke-linecap="round" stroke-linejoin="round"/>
<path d="M8 17.0001H16" stroke="#34613A" stroke-width="1.5" stroke-linecap="round" stroke-linejoin="round"/>
</svg>
