<svg width="18" height="19" viewBox="0 0 18 19" fill="none" xmlns="http://www.w3.org/2000/svg">
<path d="M6.86992 8.65256C6.79492 8.64506 6.70492 8.64506 6.62242 8.65256C4.83742 8.59256 3.41992 7.13006 3.41992 5.33006C3.41992 3.49256 4.90492 2.00006 6.74992 2.00006C8.58742 2.00006 10.0799 3.49256 10.0799 5.33006C10.0724 7.13006 8.65492 8.59256 6.86992 8.65256Z" stroke="#FA7139" stroke-width="2" stroke-linecap="round" stroke-linejoin="round"/>
<path d="M12.3075 3.50006C13.7625 3.50006 14.9325 4.67756 14.9325 6.12506C14.9325 7.54256 13.8075 8.69756 12.405 8.75006C12.345 8.74256 12.2775 8.74256 12.21 8.75006" stroke="#FA7139" stroke-width="2" stroke-linecap="round" stroke-linejoin="round"/>
<path d="M3.12004 11.4201C1.30504 12.6351 1.30504 14.6151 3.12004 15.8226C5.18254 17.2026 8.56504 17.2026 10.6275 15.8226C12.4425 14.6076 12.4425 12.6276 10.6275 11.4201C8.57254 10.0476 5.19004 10.0476 3.12004 11.4201Z" stroke="#FA7139" stroke-width="2" stroke-linecap="round" stroke-linejoin="round"/>
<path d="M13.7549 15.5001C14.2949 15.3876 14.8049 15.1701 15.2249 14.8476C16.3949 13.9701 16.3949 12.5226 15.2249 11.6451C14.8124 11.3301 14.3099 11.1201 13.7774 11.0001" stroke="#FA7139" stroke-width="1.5" stroke-linecap="round" stroke-linejoin="round"/>
</svg>
