<svg width="24" height="24" viewBox="0 0 24 24" fill="none" xmlns="http://www.w3.org/2000/svg">
<path d="M9.15957 10.8705C9.05957 10.8605 8.93957 10.8605 8.82957 10.8705C6.44957 10.7905 4.55957 8.84049 4.55957 6.44049C4.55957 3.99049 6.53957 2.00049 8.99957 2.00049C11.4496 2.00049 13.4396 3.99049 13.4396 6.44049C13.4296 8.84049 11.5396 10.7905 9.15957 10.8705Z" stroke="#5A7A7E" stroke-width="1.5" stroke-linecap="round" stroke-linejoin="round"/>
<path d="M16.4103 4.00049C18.3503 4.00049 19.9103 5.57049 19.9103 7.50049C19.9103 9.39049 18.4103 10.9305 16.5403 11.0005C16.4603 10.9905 16.3703 10.9905 16.2803 11.0005" stroke="#5A7A7E" stroke-width="1.5" stroke-linecap="round" stroke-linejoin="round"/>
<path d="M4.15973 14.5605C1.73973 16.1805 1.73973 18.8205 4.15973 20.4305C6.90973 22.2705 11.4197 22.2705 14.1697 20.4305C16.5897 18.8105 16.5897 16.1705 14.1697 14.5605C11.4297 12.7305 6.91973 12.7305 4.15973 14.5605Z" stroke="#5A7A7E" stroke-width="1.5" stroke-linecap="round" stroke-linejoin="round"/>
<path d="M18.3398 20.0005C19.0598 19.8505 19.7398 19.5605 20.2998 19.1305C21.8598 17.9605 21.8598 16.0305 20.2998 14.8605C19.7498 14.4405 19.0798 14.1605 18.3698 14.0005" stroke="#5A7A7E" stroke-width="1.5" stroke-linecap="round" stroke-linejoin="round"/>
</svg>
