<svg width="24" height="24" viewBox="0 0 24 24" fill="none" xmlns="http://www.w3.org/2000/svg">
<path d="M9.16055 10.8701C9.06055 10.8601 8.94055 10.8601 8.83055 10.8701C6.45055 10.7901 4.56055 8.84009 4.56055 6.44009C4.56055 3.99009 6.54055 2.00009 9.00055 2.00009C11.4505 2.00009 13.4405 3.99009 13.4405 6.44009C13.4305 8.84009 11.5405 10.7901 9.16055 10.8701Z" stroke="#5A7A7E" stroke-width="2" stroke-linecap="round" stroke-linejoin="round"/>
<path d="M16.4093 4.00009C18.3493 4.00009 19.9093 5.57009 19.9093 7.50009C19.9093 9.39009 18.4093 10.9301 16.5393 11.0001C16.4593 10.9901 16.3693 10.9901 16.2793 11.0001" stroke="#5A7A7E" stroke-width="2" stroke-linecap="round" stroke-linejoin="round"/>
<path d="M4.1607 14.5601C1.7407 16.1801 1.7407 18.8201 4.1607 20.4301C6.9107 22.2701 11.4207 22.2701 14.1707 20.4301C16.5907 18.8101 16.5907 16.1701 14.1707 14.5601C11.4307 12.7301 6.9207 12.7301 4.1607 14.5601Z" stroke="#5A7A7E" stroke-width="2" stroke-linecap="round" stroke-linejoin="round"/>
<path d="M18.3398 20.0001C19.0598 19.8501 19.7398 19.5601 20.2998 19.1301C21.8598 17.9601 21.8598 16.0301 20.2998 14.8601C19.7498 14.4401 19.0798 14.1601 18.3698 14.0001" stroke="#5A7A7E" stroke-width="2" stroke-linecap="round" stroke-linejoin="round"/>
</svg>
