<svg width="120" height="100" viewBox="0 0 120 100" fill="none" xmlns="http://www.w3.org/2000/svg">
<mask id="mask0_440_13351" style="mask-type:alpha" maskUnits="userSpaceOnUse" x="0" y="0" width="120" height="100">
<rect width="120" height="100" rx="24" fill="#D9D9D9"/>
</mask>
<g mask="url(#mask0_440_13351)">
<rect width="120" height="100" rx="24" fill="#F1FAE6"/>
<path d="M38.8048 65.7725L38.7598 65.8175C38.1523 64.49 37.7698 62.9825 37.6123 61.3175C37.7698 62.96 38.1973 64.445 38.8048 65.7725Z" fill="#34613A"/>
<path d="M53.2495 46.355C56.207 46.355 58.6045 43.9575 58.6045 41C58.6045 38.0425 56.207 35.645 53.2495 35.645C50.292 35.645 47.8945 38.0425 47.8945 41C47.8945 43.9575 50.292 46.355 53.2495 46.355Z" fill="#34613A"/>
<path d="M69.4275 27.5H50.5725C42.3825 27.5 37.5 32.3825 37.5 40.5725V59.4275C37.5 61.88 37.9275 64.0175 38.76 65.8175C40.695 70.0925 44.835 72.5 50.5725 72.5H69.4275C77.6175 72.5 82.5 67.6175 82.5 59.4275V54.275V40.5725C82.5 32.3825 77.6175 27.5 69.4275 27.5ZM78.8325 51.125C77.0775 49.6175 74.2425 49.6175 72.4875 51.125L63.1275 59.1575C61.3725 60.665 58.5375 60.665 56.7825 59.1575L56.0175 58.5275C54.42 57.1325 51.8775 56.9975 50.0775 58.2125L41.6625 63.86C41.1675 62.6 40.875 61.1375 40.875 59.4275V40.5725C40.875 34.2275 44.2275 30.875 50.5725 30.875H69.4275C75.7725 30.875 79.125 34.2275 79.125 40.5725V51.3725L78.8325 51.125Z" fill="#34613A"/>
</g>
</svg>
