<svg width="198" height="38" viewBox="0 0 198 38" fill="none" xmlns="http://www.w3.org/2000/svg">
<g clip-path="url(#clip0_172_1518)">
<path d="M38.4477 20.4248H31.6603C25.7314 20.4248 20.9253 25.231 20.9253 31.1598V37.9472C30.2827 37.2533 37.7538 29.7822 38.4477 20.4248Z" fill="#34613A"/>
<path d="M18.0751 37.9472V31.1598C18.0751 25.231 13.2689 20.4248 7.3401 20.4248H0.552734C1.24655 29.7822 8.7177 37.2533 18.0751 37.9472Z" fill="#34613A"/>
<path d="M38.4477 17.5748C37.7538 8.21739 30.2827 0.746247 20.9253 0.0524292V6.83979C20.9253 12.7686 25.7314 17.5748 31.6603 17.5748H38.4477Z" fill="#34613A"/>
<path d="M18.0751 0.0524292C8.7177 0.746247 1.24655 8.21739 0.552734 17.5748H7.3401C13.2689 17.5748 18.0751 12.7686 18.0751 6.83979V0.0524292Z" fill="#34613A"/>
<path d="M13.4038 18.9998C16.0377 17.6838 18.1842 15.5373 19.5001 12.9034C20.8162 15.5373 22.9626 17.6838 25.5966 18.9998C22.9626 20.3158 20.8162 22.4623 19.5001 25.0962C18.1842 22.4623 16.0377 20.3158 13.4038 18.9998Z" fill="#FBAD48"/>
</g>
<path d="M53.14 30V9H61.93C63.47 9 64.88 9.26 66.16 9.78C67.44 10.28 68.54 11 69.46 11.94C70.4 12.88 71.12 13.99 71.62 15.27C72.12 16.55 72.37 17.96 72.37 19.5C72.37 21.04 72.12 22.46 71.62 23.76C71.12 25.04 70.4 26.15 69.46 27.09C68.54 28.01 67.44 28.73 66.16 29.25C64.88 29.75 63.47 30 61.93 30H53.14ZM58.24 26.52L57.55 25.5H61.78C62.62 25.5 63.37 25.36 64.03 25.08C64.69 24.78 65.25 24.37 65.71 23.85C66.19 23.33 66.56 22.7 66.82 21.96C67.08 21.22 67.21 20.4 67.21 19.5C67.21 18.6 67.08 17.78 66.82 17.04C66.56 16.3 66.19 15.67 65.71 15.15C65.25 14.63 64.69 14.23 64.03 13.95C63.37 13.65 62.62 13.5 61.78 13.5H57.46L58.24 12.54V26.52ZM83.3938 30.3C81.6338 30.3 80.1038 29.95 78.8038 29.25C77.5038 28.53 76.4938 27.56 75.7738 26.34C75.0538 25.1 74.6938 23.69 74.6938 22.11C74.6938 20.89 74.8938 19.77 75.2938 18.75C75.6938 17.73 76.2538 16.85 76.9738 16.11C77.6938 15.35 78.5438 14.77 79.5238 14.37C80.5238 13.95 81.6138 13.74 82.7938 13.74C83.9138 13.74 84.9338 13.94 85.8538 14.34C86.7938 14.74 87.6038 15.3 88.2838 16.02C88.9638 16.74 89.4838 17.59 89.8438 18.57C90.2038 19.55 90.3638 20.62 90.3238 21.78L90.2938 23.07H77.6038L76.9138 20.37H86.3938L85.8838 20.94V20.34C85.8438 19.84 85.6838 19.4 85.4038 19.02C85.1438 18.62 84.7938 18.31 84.3538 18.09C83.9138 17.87 83.4138 17.76 82.8538 17.76C82.0738 17.76 81.4038 17.92 80.8438 18.24C80.3038 18.54 79.8938 18.99 79.6138 19.59C79.3338 20.17 79.1938 20.89 79.1938 21.75C79.1938 22.63 79.3738 23.4 79.7338 24.06C80.1138 24.7 80.6538 25.2 81.3538 25.56C82.0738 25.92 82.9238 26.1 83.9038 26.1C84.5838 26.1 85.1838 26 85.7038 25.8C86.2438 25.6 86.8238 25.26 87.4438 24.78L89.6938 27.96C89.0738 28.5 88.4138 28.94 87.7138 29.28C87.0138 29.62 86.2938 29.87 85.5538 30.03C84.8338 30.21 84.1138 30.3 83.3938 30.3ZM98.752 30.3C97.192 30.3 95.812 30.05 94.612 29.55C93.432 29.05 92.492 28.38 91.792 27.54L94.702 25.02C95.322 25.64 96.022 26.1 96.802 26.4C97.582 26.68 98.322 26.82 99.022 26.82C99.302 26.82 99.552 26.79 99.772 26.73C99.992 26.67 100.172 26.59 100.312 26.49C100.472 26.37 100.592 26.24 100.672 26.1C100.752 25.94 100.792 25.76 100.792 25.56C100.792 25.16 100.612 24.85 100.252 24.63C100.072 24.53 99.772 24.41 99.352 24.27C98.932 24.13 98.392 23.97 97.732 23.79C96.792 23.55 95.972 23.27 95.272 22.95C94.592 22.61 94.032 22.22 93.592 21.78C93.192 21.36 92.882 20.9 92.662 20.4C92.442 19.88 92.332 19.3 92.332 18.66C92.332 17.92 92.502 17.25 92.842 16.65C93.202 16.05 93.672 15.53 94.252 15.09C94.852 14.65 95.532 14.32 96.292 14.1C97.072 13.86 97.872 13.74 98.692 13.74C99.572 13.74 100.412 13.84 101.212 14.04C102.012 14.24 102.752 14.52 103.432 14.88C104.132 15.24 104.752 15.67 105.292 16.17L102.772 18.99C102.412 18.65 102.002 18.35 101.542 18.09C101.102 17.81 100.642 17.59 100.162 17.43C99.682 17.27 99.242 17.19 98.842 17.19C98.542 17.19 98.272 17.22 98.032 17.28C97.812 17.32 97.622 17.4 97.462 17.52C97.302 17.62 97.182 17.75 97.102 17.91C97.022 18.05 96.982 18.22 96.982 18.42C96.982 18.62 97.032 18.81 97.132 18.99C97.252 19.17 97.412 19.32 97.612 19.44C97.812 19.56 98.132 19.7 98.572 19.86C99.012 20 99.612 20.18 100.372 20.4C101.312 20.66 102.122 20.95 102.802 21.27C103.482 21.59 104.022 21.97 104.422 22.41C104.742 22.75 104.982 23.15 105.142 23.61C105.302 24.05 105.382 24.53 105.382 25.05C105.382 26.07 105.092 26.98 104.512 27.78C103.952 28.56 103.172 29.18 102.172 29.64C101.172 30.08 100.032 30.3 98.752 30.3ZM114.115 30.27C112.775 30.27 111.575 29.92 110.515 29.22C109.475 28.5 108.645 27.52 108.025 26.28C107.405 25.02 107.095 23.6 107.095 22.02C107.095 20.4 107.405 18.97 108.025 17.73C108.645 16.49 109.495 15.52 110.575 14.82C111.655 14.1 112.885 13.74 114.265 13.74C115.025 13.74 115.715 13.85 116.335 14.07C116.975 14.29 117.535 14.6 118.015 15C118.495 15.38 118.905 15.83 119.245 16.35C119.585 16.85 119.835 17.39 119.995 17.97L119.005 17.85V14.07H123.775V30H118.915V26.16L119.995 26.13C119.835 26.69 119.575 27.22 119.215 27.72C118.855 28.22 118.415 28.66 117.895 29.04C117.375 29.42 116.795 29.72 116.155 29.94C115.515 30.16 114.835 30.27 114.115 30.27ZM115.435 26.22C116.175 26.22 116.815 26.05 117.355 25.71C117.895 25.37 118.315 24.89 118.615 24.27C118.915 23.63 119.065 22.88 119.065 22.02C119.065 21.16 118.915 20.42 118.615 19.8C118.315 19.16 117.895 18.67 117.355 18.33C116.815 17.97 116.175 17.79 115.435 17.79C114.715 17.79 114.085 17.97 113.545 18.33C113.025 18.67 112.615 19.16 112.315 19.8C112.015 20.42 111.865 21.16 111.865 22.02C111.865 22.88 112.015 23.63 112.315 24.27C112.615 24.89 113.025 25.37 113.545 25.71C114.085 26.05 114.715 26.22 115.435 26.22ZM132.241 23.85L130.921 19.56L141.331 9H147.361L132.241 23.85ZM128.521 30V9H133.621V30H128.521ZM141.991 30L134.191 19.74L137.641 16.77L147.931 30H141.991ZM150.459 30V14.07H155.259V30H150.459ZM152.859 10.92C151.959 10.92 151.249 10.71 150.729 10.29C150.229 9.85 149.979 9.23 149.979 8.43C149.979 7.71 150.239 7.12 150.759 6.66C151.279 6.2 151.979 5.97 152.859 5.97C153.759 5.97 154.459 6.19 154.959 6.63C155.459 7.05 155.709 7.65 155.709 8.43C155.709 9.17 155.449 9.77 154.929 10.23C154.429 10.69 153.739 10.92 152.859 10.92ZM161.089 30V10.05H165.889V30H161.089ZM158.269 18.27V14.07H168.979V18.27H158.269ZM177.455 30.27C176.115 30.27 174.915 29.92 173.855 29.22C172.815 28.5 171.985 27.52 171.365 26.28C170.745 25.02 170.435 23.6 170.435 22.02C170.435 20.4 170.745 18.97 171.365 17.73C171.985 16.49 172.835 15.52 173.915 14.82C174.995 14.1 176.225 13.74 177.605 13.74C178.365 13.74 179.055 13.85 179.675 14.07C180.315 14.29 180.875 14.6 181.355 15C181.835 15.38 182.245 15.83 182.585 16.35C182.925 16.85 183.175 17.39 183.335 17.97L182.345 17.85V14.07H187.115V30H182.255V26.16L183.335 26.13C183.175 26.69 182.915 27.22 182.555 27.72C182.195 28.22 181.755 28.66 181.235 29.04C180.715 29.42 180.135 29.72 179.495 29.94C178.855 30.16 178.175 30.27 177.455 30.27ZM178.775 26.22C179.515 26.22 180.155 26.05 180.695 25.71C181.235 25.37 181.655 24.89 181.955 24.27C182.255 23.63 182.405 22.88 182.405 22.02C182.405 21.16 182.255 20.42 181.955 19.8C181.655 19.16 181.235 18.67 180.695 18.33C180.155 17.97 179.515 17.79 178.775 17.79C178.055 17.79 177.425 17.97 176.885 18.33C176.365 18.67 175.955 19.16 175.655 19.8C175.355 20.42 175.205 21.16 175.205 22.02C175.205 22.88 175.355 23.63 175.655 24.27C175.955 24.89 176.365 25.37 176.885 25.71C177.425 26.05 178.055 26.22 178.775 26.22ZM193.061 30.33C192.241 30.33 191.601 30.1 191.141 29.64C190.701 29.18 190.481 28.52 190.481 27.66C190.481 26.86 190.721 26.21 191.201 25.71C191.681 25.21 192.301 24.96 193.061 24.96C193.881 24.96 194.521 25.2 194.981 25.68C195.441 26.14 195.671 26.8 195.671 27.66C195.671 28.44 195.431 29.08 194.951 29.58C194.471 30.08 193.841 30.33 193.061 30.33Z" fill="#001B1A"/>
<defs>
<clipPath id="clip0_172_1518">
<rect width="38" height="38" fill="white" transform="translate(0.5)"/>
</clipPath>
</defs>
</svg>
