<svg width="52" height="52" viewBox="0 0 52 52" fill="none" xmlns="http://www.w3.org/2000/svg">
<path d="M29.0116 37.6135L23.0532 31.6552" stroke="#5A7A7E" stroke-width="2" stroke-miterlimit="10" stroke-linecap="round" stroke-linejoin="round"/>
<path d="M28.9466 31.7202L22.9883 37.6785" stroke="#5A7A7E" stroke-width="2" stroke-miterlimit="10" stroke-linecap="round" stroke-linejoin="round"/>
<path d="M19.0885 4.33351L11.2451 12.1985" stroke="#5A7A7E" stroke-width="2" stroke-miterlimit="10" stroke-linecap="round" stroke-linejoin="round"/>
<path d="M32.9116 4.33351L40.755 12.1985" stroke="#5A7A7E" stroke-width="2" stroke-miterlimit="10" stroke-linecap="round" stroke-linejoin="round"/>
<path d="M4.33325 17.0085C4.33325 13.0002 6.47825 12.6752 9.14325 12.6752H42.8566C45.5216 12.6752 47.6666 13.0002 47.6666 17.0085C47.6666 21.6669 45.5216 21.3419 42.8566 21.3419H9.14325C6.47825 21.3419 4.33325 21.6669 4.33325 17.0085Z" stroke="#5A7A7E" stroke-width="2"/>
<path d="M7.58325 21.6669L10.6383 40.3869C11.3316 44.5902 12.9999 47.6669 19.1966 47.6669H32.2616C38.9999 47.6669 39.9966 44.7202 40.7766 40.6469L44.4166 21.6669" stroke="#5A7A7E" stroke-width="2" stroke-linecap="round"/>
</svg>
