<svg width="24" height="24" viewBox="0 0 24 24" fill="none" xmlns="http://www.w3.org/2000/svg">
<path d="M7.99983 22.0004H15.9998C20.0198 22.0004 20.7398 20.3904 20.9498 18.4304L21.6998 10.4304C21.9698 7.99037 21.2698 6.00037 16.9998 6.00037H6.99983C2.72983 6.00037 2.02983 7.99037 2.29983 10.4304L3.04983 18.4304C3.25983 20.3904 3.97983 22.0004 7.99983 22.0004Z" stroke="#001B1A" stroke-width="1.5" stroke-miterlimit="10" stroke-linecap="round" stroke-linejoin="round"/>
<path d="M8 6.00037V5.20037C8 3.43037 8 2.00037 11.2 2.00037H12.8C16 2.00037 16 3.43037 16 5.20037V6.00037" stroke="#001B1A" stroke-width="1.5" stroke-miterlimit="10" stroke-linecap="round" stroke-linejoin="round"/>
<path d="M14 13.0004V14.0004C14 14.0104 14 14.0104 14 14.0204C14 15.1104 13.99 16.0004 12 16.0004C10.02 16.0004 10 15.1204 10 14.0304V13.0004C10 12.0004 10 12.0004 11 12.0004H13C14 12.0004 14 12.0004 14 13.0004Z" stroke="#001B1A" stroke-width="1.5" stroke-miterlimit="10" stroke-linecap="round" stroke-linejoin="round"/>
<path d="M21.65 11.0004C19.34 12.6804 16.7 13.6804 14 14.0204" stroke="#001B1A" stroke-width="1.5" stroke-miterlimit="10" stroke-linecap="round" stroke-linejoin="round"/>
<path d="M2.62012 11.2704C4.87012 12.8104 7.41012 13.7404 10.0001 14.0304" stroke="#001B1A" stroke-width="1.5" stroke-miterlimit="10" stroke-linecap="round" stroke-linejoin="round"/>
</svg>
