<svg width="18" height="19" viewBox="0 0 18 19" fill="none" xmlns="http://www.w3.org/2000/svg">
<path d="M6.00011 17.0001H12.0001C15.0151 17.0001 15.5551 15.7926 15.7126 14.3226L16.2751 8.32256C16.4776 6.49256 15.9526 5.00006 12.7501 5.00006H5.25011C2.04761 5.00006 1.52261 6.49256 1.72511 8.32256L2.28761 14.3226C2.44511 15.7926 2.98511 17.0001 6.00011 17.0001Z" stroke="#5A7A7E" stroke-width="1.5" stroke-miterlimit="10" stroke-linecap="round" stroke-linejoin="round"/>
<path d="M6 5.00006V4.40006C6 3.07256 6 2.00006 8.4 2.00006H9.6C12 2.00006 12 3.07256 12 4.40006V5.00006" stroke="#5A7A7E" stroke-width="1.5" stroke-miterlimit="10" stroke-linecap="round" stroke-linejoin="round"/>
<path d="M10.5 10.2501V11.0001C10.5 11.0076 10.5 11.0076 10.5 11.0151C10.5 11.8326 10.4925 12.5001 9 12.5001C7.515 12.5001 7.5 11.8401 7.5 11.0226V10.2501C7.5 9.50006 7.5 9.50006 8.25 9.50006H9.75C10.5 9.50006 10.5 9.50006 10.5 10.2501Z" stroke="#5A7A7E" stroke-width="1.5" stroke-miterlimit="10" stroke-linecap="round" stroke-linejoin="round"/>
<path d="M16.2375 8.75006C14.505 10.0101 12.525 10.7601 10.5 11.0151" stroke="#5A7A7E" stroke-width="1.5" stroke-miterlimit="10" stroke-linecap="round" stroke-linejoin="round"/>
<path d="M1.96509 8.95258C3.65259 10.1076 5.55759 10.8051 7.50009 11.0226" stroke="#5A7A7E" stroke-width="1.5" stroke-miterlimit="10" stroke-linecap="round" stroke-linejoin="round"/>
</svg>
