<svg width="48" height="48" viewBox="0 0 48 48" fill="none" xmlns="http://www.w3.org/2000/svg">
<rect width="48" height="48" rx="24" fill="#F1FAE6"/>
<path d="M24.5007 34.0001H16.0807C14.9207 34.0001 13.9707 33.0701 13.9707 31.9301V17.0901C13.9707 14.4701 15.9207 13.2801 18.3107 14.4501L22.7507 16.6301C23.7107 17.1001 24.5007 18.3501 24.5007 19.4101V34.0001Z" stroke="#34613A" stroke-width="1.5" stroke-linecap="round" stroke-linejoin="round"/>
<path d="M33.97 27.0601V30.8401C33.97 33.0001 32.97 34.0001 30.81 34.0001H24.5V22.4201L24.97 22.5201L29.47 23.5301L31.5 23.9801C32.82 24.2701 33.9 24.9501 33.96 26.8701C33.97 26.9301 33.97 26.9901 33.97 27.0601Z" stroke="#34613A" stroke-width="1.5" stroke-linecap="round" stroke-linejoin="round"/>
<path d="M17.5 21.0001H20.97" stroke="#34613A" stroke-width="1.5" stroke-linecap="round" stroke-linejoin="round"/>
<path d="M17.5 25.0001H20.97" stroke="#34613A" stroke-width="1.5" stroke-linecap="round" stroke-linejoin="round"/>
<path d="M29.4707 23.5301V26.7501C29.4707 27.9901 28.4607 29.0001 27.2207 29.0001C25.9807 29.0001 24.9707 27.9901 24.9707 26.7501V22.5201L29.4707 23.5301Z" stroke="#34613A" stroke-width="1.5" stroke-linecap="round" stroke-linejoin="round"/>
<path d="M33.9607 26.8701C33.9007 28.0501 32.9207 29.0001 31.7207 29.0001C30.4807 29.0001 29.4707 27.9901 29.4707 26.7501V23.5301L31.5007 23.9801C32.8207 24.2701 33.9007 24.9501 33.9607 26.8701Z" stroke="#34613A" stroke-width="1.5" stroke-linecap="round" stroke-linejoin="round"/>
</svg>
