<svg width="52" height="52" viewBox="0 0 52 52" fill="none" xmlns="http://www.w3.org/2000/svg">
<path d="M17.3333 4.33344V10.8334" stroke="#5A7A7E" stroke-width="2" stroke-miterlimit="10" stroke-linecap="round" stroke-linejoin="round"/>
<path d="M34.6667 4.33344V10.8334" stroke="#5A7A7E" stroke-width="2" stroke-miterlimit="10" stroke-linecap="round" stroke-linejoin="round"/>
<path d="M7.58325 19.6951H44.4166" stroke="#5A7A7E" stroke-width="2" stroke-miterlimit="10" stroke-linecap="round" stroke-linejoin="round"/>
<path d="M38.9999 49.8334C43.7864 49.8334 47.6666 45.9532 47.6666 41.1668C47.6666 36.3803 43.7864 32.5001 38.9999 32.5001C34.2135 32.5001 30.3333 36.3803 30.3333 41.1668C30.3333 45.9532 34.2135 49.8334 38.9999 49.8334Z" stroke="#5A7A7E" stroke-width="2" stroke-miterlimit="10" stroke-linecap="round" stroke-linejoin="round"/>
<path d="M41.3185 43.5717L36.7251 39.0001" stroke="#5A7A7E" stroke-width="2" stroke-miterlimit="10" stroke-linecap="round" stroke-linejoin="round"/>
<path d="M41.275 39.0434L36.6816 43.6368" stroke="#5A7A7E" stroke-width="2" stroke-miterlimit="10" stroke-linecap="round" stroke-linejoin="round"/>
<path d="M45.5 18.4168V35.4467C43.9183 33.6484 41.6 32.5001 39 32.5001C34.2117 32.5001 30.3333 36.3784 30.3333 41.1668C30.3333 42.7918 30.7883 44.3301 31.59 45.6301C32.045 46.4101 32.63 47.1034 33.3017 47.6668H17.3333C9.75 47.6668 6.5 43.3334 6.5 36.8334V18.4168C6.5 11.9168 9.75 7.58344 17.3333 7.58344H34.6667C42.25 7.58344 45.5 11.9168 45.5 18.4168Z" stroke="#5A7A7E" stroke-width="2" stroke-miterlimit="10" stroke-linecap="round" stroke-linejoin="round"/>
<path d="M25.9901 29.6835H26.0096" stroke="#5A7A7E" stroke-width="4" stroke-linecap="round" stroke-linejoin="round"/>
<path d="M17.9711 29.6835H17.9906" stroke="#5A7A7E" stroke-width="4" stroke-linecap="round" stroke-linejoin="round"/>
<path d="M17.9711 36.1835H17.9906" stroke="#5A7A7E" stroke-width="4" stroke-linecap="round" stroke-linejoin="round"/>
</svg>
