<svg width="44" height="44" viewBox="0 0 44 44" fill="none" xmlns="http://www.w3.org/2000/svg">
<rect width="44" height="44" rx="22" fill="#8EBD55"/>
<path d="M27 32H17C16.59 32 16.25 31.66 16.25 31.25C16.25 30.84 16.59 30.5 17 30.5H27C27.41 30.5 27.75 30.84 27.75 31.25C27.75 31.66 27.41 32 27 32Z" fill="white"/>
<path d="M30.35 15.52L26.35 18.38C25.82 18.76 25.06 18.53 24.83 17.92L22.94 12.88C22.62 12.01 21.39 12.01 21.07 12.88L19.17 17.91C18.94 18.53 18.19 18.76 17.66 18.37L13.66 15.51C12.86 14.95 11.8 15.74 12.13 16.67L16.29 28.32C16.43 28.72 16.81 28.98 17.23 28.98H26.76C27.18 28.98 27.56 28.71 27.7 28.32L31.86 16.67C32.2 15.74 31.14 14.95 30.35 15.52ZM24.5 24.75H19.5C19.09 24.75 18.75 24.41 18.75 24C18.75 23.59 19.09 23.25 19.5 23.25H24.5C24.91 23.25 25.25 23.59 25.25 24C25.25 24.41 24.91 24.75 24.5 24.75Z" fill="white"/>
</svg>
