<svg width="24" height="24" viewBox="0 0 24 24" fill="none" xmlns="http://www.w3.org/2000/svg">
<path d="M8.67188 14.3301C8.67188 15.6201 9.66188 16.6601 10.8919 16.6601H13.4019C14.4719 16.6601 15.3419 15.7501 15.3419 14.6301C15.3419 13.4101 14.8119 12.9801 14.0219 12.7001L9.99187 11.3001C9.20187 11.0201 8.67188 10.5901 8.67188 9.37009C8.67188 8.25009 9.54187 7.34009 10.6119 7.34009H13.1219C14.3519 7.34009 15.3419 8.38009 15.3419 9.67009" stroke="#5A7A7E" stroke-width="1.5" stroke-linecap="round" stroke-linejoin="round"/>
<path d="M12 6.00024V18.0002" stroke="#5A7A7E" stroke-width="1.5" stroke-linecap="round" stroke-linejoin="round"/>
<path d="M15 22.0002H9C4 22.0002 2 20.0002 2 15.0002V9.00024C2 4.00024 4 2.00024 9 2.00024H15C20 2.00024 22 4.00024 22 9.00024V15.0002C22 20.0002 20 22.0002 15 22.0002Z" stroke="#34613A" stroke-width="1.5" stroke-linecap="round" stroke-linejoin="round"/>
</svg>
