<svg width="24" height="24" viewBox="0 0 24 24" fill="none" xmlns="http://www.w3.org/2000/svg">
<path d="M8.67188 14.3299C8.67188 15.6199 9.66188 16.6599 10.8919 16.6599H13.4019C14.4719 16.6599 15.3419 15.7499 15.3419 14.6299C15.3419 13.4099 14.8119 12.9799 14.0219 12.6999L9.99187 11.2999C9.20187 11.0199 8.67188 10.5899 8.67188 9.3699C8.67188 8.2499 9.54187 7.3399 10.6119 7.3399H13.1219C14.3519 7.3399 15.3419 8.3799 15.3419 9.6699" stroke="#34613A" stroke-width="2" stroke-linecap="round" stroke-linejoin="round"/>
<path d="M12 6.00006V18.0001" stroke="#34613A" stroke-width="2" stroke-linecap="round" stroke-linejoin="round"/>
<path d="M15 22.0001H9C4 22.0001 2 20.0001 2 15.0001V9.00006C2 4.00006 4 2.00006 9 2.00006H15C20 2.00006 22 4.00006 22 9.00006V15.0001C22 20.0001 20 22.0001 15 22.0001Z" stroke="#34613A" stroke-width="2" stroke-linecap="round" stroke-linejoin="round"/>
</svg>
