<svg width="24" height="24" viewBox="0 0 24 24" fill="none" xmlns="http://www.w3.org/2000/svg">
<path d="M11 2.00012H9C4 2.00012 2 4.00012 2 9.00012V15.0001C2 20.0001 4 22.0001 9 22.0001H15C20 22.0001 22 20.0001 22 15.0001V13.0001" stroke="#001B1A" stroke-width="1.5" stroke-linecap="round" stroke-linejoin="round"/>
<path d="M16.0399 3.02013L8.15988 10.9001C7.85988 11.2001 7.55988 11.7901 7.49988 12.2201L7.06988 15.2301C6.90988 16.3201 7.67988 17.0801 8.76988 16.9301L11.7799 16.5001C12.1999 16.4401 12.7899 16.1401 13.0999 15.8401L20.9799 7.96013C22.3399 6.60013 22.9799 5.02013 20.9799 3.02013C18.9799 1.02013 17.3999 1.66013 16.0399 3.02013Z" stroke="#001B1A" stroke-width="1.5" stroke-miterlimit="10" stroke-linecap="round" stroke-linejoin="round"/>
<path d="M14.9102 4.15015C15.5802 6.54015 17.4502 8.41015 19.8502 9.09015" stroke="#001B1A" stroke-width="1.5" stroke-miterlimit="10" stroke-linecap="round" stroke-linejoin="round"/>
</svg>
