<svg width="36" height="36" viewBox="0 0 36 36" fill="none" xmlns="http://www.w3.org/2000/svg">
<path d="M31.875 13.725C28.41 8.28002 23.34 5.14502 18 5.14502C15.33 5.14502 12.735 5.92502 10.365 7.38002C7.995 8.85002 5.865 10.995 4.125 13.725C2.625 16.08 2.625 19.905 4.125 22.26C7.59 27.72 12.66 30.84 18 30.84C20.67 30.84 23.265 30.06 25.635 28.605C28.005 27.135 30.135 24.99 31.875 22.26C33.375 19.92 33.375 16.08 31.875 13.725ZM18 24.06C14.64 24.06 11.94 21.345 11.94 18C11.94 14.655 14.64 11.94 18 11.94C21.36 11.94 24.06 14.655 24.06 18C24.06 21.345 21.36 24.06 18 24.06Z" fill="white"/>
<path d="M17.9996 13.71C15.6446 13.71 13.7246 15.63 13.7246 18C13.7246 20.355 15.6446 22.275 17.9996 22.275C20.3546 22.275 22.2896 20.355 22.2896 18C22.2896 15.645 20.3546 13.71 17.9996 13.71Z" fill="white"/>
</svg>
