<svg width="24" height="24" viewBox="0 0 24 24" fill="none" xmlns="http://www.w3.org/2000/svg">
<path d="M3.5 22.0004V5.00037C3.5 3.00037 4.84 2.00037 6.5 2.00037H14.5C16.16 2.00037 17.5 3.00037 17.5 5.00037V22.0004H3.5Z" stroke="#34613A" stroke-width="2" stroke-linecap="round" stroke-linejoin="round"/>
<path d="M2 22.0004H19" stroke="#34613A" stroke-width="2" stroke-linecap="round" stroke-linejoin="round"/>
<path d="M8.39 10.0004H12.62C13.66 10.0004 14.51 9.50035 14.51 8.11035V6.88036C14.51 5.49036 13.66 4.99036 12.62 4.99036H8.39C7.35 4.99036 6.5 5.49036 6.5 6.88036V8.11035C6.5 9.50035 7.35 10.0004 8.39 10.0004Z" stroke="#34613A" stroke-width="2" stroke-linecap="round" stroke-linejoin="round"/>
<path d="M6.5 13.0004H9.5" stroke="#34613A" stroke-width="2" stroke-linecap="round" stroke-linejoin="round"/>
<path d="M17.5 16.0104L22 16.0004V10.0004L20 9.00037" stroke="#34613A" stroke-width="2" stroke-linecap="round" stroke-linejoin="round"/>
</svg>
