<svg width="24" height="24" viewBox="0 0 24 24" fill="none" xmlns="http://www.w3.org/2000/svg">
<path d="M3.5 22.0002V5.00015C3.5 3.00015 4.84 2.00015 6.5 2.00015H14.5C16.16 2.00015 17.5 3.00015 17.5 5.00015V22.0002H3.5Z" stroke="#5A7A7E" stroke-width="1.5" stroke-linecap="round" stroke-linejoin="round"/>
<path d="M2 22.0002H19" stroke="#5A7A7E" stroke-width="1.5" stroke-linecap="round" stroke-linejoin="round"/>
<path d="M8.39 10.0002H12.62C13.66 10.0002 14.51 9.50015 14.51 8.11015V6.88016C14.51 5.49016 13.66 4.99016 12.62 4.99016H8.39C7.35 4.99016 6.5 5.49016 6.5 6.88016V8.11015C6.5 9.50015 7.35 10.0002 8.39 10.0002Z" stroke="#5A7A7E" stroke-width="1.5" stroke-linecap="round" stroke-linejoin="round"/>
<path d="M6.5 13.0002H9.5" stroke="#5A7A7E" stroke-width="1.5" stroke-linecap="round" stroke-linejoin="round"/>
<path d="M17.5 16.0101L22 16.0002V10.0002L20 9.00015" stroke="#5A7A7E" stroke-width="1.5" stroke-linecap="round" stroke-linejoin="round"/>
</svg>
