<svg width="18" height="18" viewBox="0 0 18 18" fill="none" xmlns="http://www.w3.org/2000/svg">
<path d="M5.625 3.00009H12.375C12.84 3.00009 13.2525 3.01509 13.62 3.06759C15.5925 3.28509 16.125 4.21509 16.125 6.75009V11.2501C16.125 13.7851 15.5925 14.7151 13.62 14.9326C13.2525 14.9851 12.84 15.0001 12.375 15.0001H5.625C5.16 15.0001 4.7475 14.9851 4.38 14.9326C2.4075 14.7151 1.875 13.7851 1.875 11.2501V6.75009C1.875 4.21509 2.4075 3.28509 4.38 3.06759C4.7475 3.01509 5.16 3.00009 5.625 3.00009Z" stroke="#5A7A7E" stroke-width="1.5" stroke-linecap="round" stroke-linejoin="round"/>
<path d="M10.125 7.50009H12.75" stroke="#5A7A7E" stroke-width="1.5" stroke-linecap="round" stroke-linejoin="round"/>
<path d="M5.25 11.6251H5.265H12.75" stroke="#5A7A7E" stroke-width="1.5" stroke-linecap="round" stroke-linejoin="round"/>
<path d="M7.57108 7.50009H7.57781" stroke="#5A7A7E" stroke-width="2" stroke-linecap="round" stroke-linejoin="round"/>
<path d="M5.32108 7.50009H5.32781" stroke="#5A7A7E" stroke-width="2" stroke-linecap="round" stroke-linejoin="round"/>
</svg>
