<svg width="24" height="24" viewBox="0 0 24 24" fill="none" xmlns="http://www.w3.org/2000/svg">
<path d="M17 20.5002H7C4 20.5002 2 19.0002 2 15.5002V8.50024C2 5.00024 4 3.50024 7 3.50024H17C20 3.50024 22 5.00024 22 8.50024V15.5002C22 19.0002 20 20.5002 17 20.5002Z" stroke="#34613A" stroke-width="2" stroke-miterlimit="10" stroke-linecap="round" stroke-linejoin="round"/>
<path d="M12 15.0002C13.6569 15.0002 15 13.6571 15 12.0002C15 10.3434 13.6569 9.00024 12 9.00024C10.3431 9.00024 9 10.3434 9 12.0002C9 13.6571 10.3431 15.0002 12 15.0002Z" stroke="#34613A" stroke-width="2" stroke-miterlimit="10" stroke-linecap="round" stroke-linejoin="round"/>
<path d="M5.5 9.50024V14.5002" stroke="#34613A" stroke-width="2" stroke-miterlimit="10" stroke-linecap="round" stroke-linejoin="round"/>
<path d="M18.5 9.50024V14.5002" stroke="#34613A" stroke-width="2" stroke-miterlimit="10" stroke-linecap="round" stroke-linejoin="round"/>
</svg>
