<svg width="24" height="24" viewBox="0 0 24 24" fill="none" xmlns="http://www.w3.org/2000/svg">
<path d="M17 20.5001H7C4 20.5001 2 19.0001 2 15.5001V8.50012C2 5.00012 4 3.50012 7 3.50012H17C20 3.50012 22 5.00012 22 8.50012V15.5001C22 19.0001 20 20.5001 17 20.5001Z" stroke="#5A7A7E" stroke-width="2" stroke-miterlimit="10" stroke-linecap="round" stroke-linejoin="round"/>
<path d="M12 15.0001C13.6569 15.0001 15 13.657 15 12.0001C15 10.3433 13.6569 9.00012 12 9.00012C10.3431 9.00012 9 10.3433 9 12.0001C9 13.657 10.3431 15.0001 12 15.0001Z" stroke="#5A7A7E" stroke-width="2" stroke-miterlimit="10" stroke-linecap="round" stroke-linejoin="round"/>
<path d="M5.5 9.50012V14.5001" stroke="#5A7A7E" stroke-width="2" stroke-miterlimit="10" stroke-linecap="round" stroke-linejoin="round"/>
<path d="M18.5 9.50012V14.5001" stroke="#5A7A7E" stroke-width="2" stroke-miterlimit="10" stroke-linecap="round" stroke-linejoin="round"/>
</svg>
