<svg width="24" height="24" viewBox="0 0 24 24" fill="none" xmlns="http://www.w3.org/2000/svg">
<path d="M9.16055 10.8704C9.06055 10.8604 8.94055 10.8604 8.83055 10.8704C6.45055 10.7904 4.56055 8.84037 4.56055 6.44037C4.56055 3.99037 6.54055 2.00037 9.00055 2.00037C11.4505 2.00037 13.4405 3.99037 13.4405 6.44037C13.4305 8.84037 11.5405 10.7904 9.16055 10.8704Z" stroke="#001B1A" stroke-width="1.5" stroke-linecap="round" stroke-linejoin="round"/>
<path d="M16.4093 4.00037C18.3493 4.00037 19.9093 5.57037 19.9093 7.50037C19.9093 9.39037 18.4093 10.9304 16.5393 11.0004C16.4593 10.9904 16.3693 10.9904 16.2793 11.0004" stroke="#001B1A" stroke-width="1.5" stroke-linecap="round" stroke-linejoin="round"/>
<path d="M4.1607 14.5604C1.7407 16.1804 1.7407 18.8204 4.1607 20.4304C6.9107 22.2704 11.4207 22.2704 14.1707 20.4304C16.5907 18.8104 16.5907 16.1704 14.1707 14.5604C11.4307 12.7304 6.9207 12.7304 4.1607 14.5604Z" stroke="#001B1A" stroke-width="1.5" stroke-linecap="round" stroke-linejoin="round"/>
<path d="M18.3398 20.0004C19.0598 19.8504 19.7398 19.5604 20.2998 19.1304C21.8598 17.9604 21.8598 16.0304 20.2998 14.8604C19.7498 14.4404 19.0798 14.1604 18.3698 14.0004" stroke="#001B1A" stroke-width="1.5" stroke-linecap="round" stroke-linejoin="round"/>
</svg>
