<svg width="25" height="24" viewBox="0 0 25 24" fill="none" xmlns="http://www.w3.org/2000/svg">
<path d="M9.49258 10.8701C9.39258 10.8601 9.27258 10.8601 9.16258 10.8701C6.78258 10.7901 4.89258 8.84012 4.89258 6.44012C4.89258 3.99012 6.87258 2.00012 9.33258 2.00012C11.7826 2.00012 13.7726 3.99012 13.7726 6.44012C13.7626 8.84012 11.8726 10.7901 9.49258 10.8701Z" stroke="#005CAA" stroke-width="2" stroke-linecap="round" stroke-linejoin="round"/>
<path d="M16.7433 4.00012C18.6833 4.00012 20.2433 5.57012 20.2433 7.50012C20.2433 9.39012 18.7433 10.9301 16.8733 11.0001C16.7933 10.9901 16.7033 10.9901 16.6133 11.0001" stroke="#005CAA" stroke-width="2" stroke-linecap="round" stroke-linejoin="round"/>
<path d="M4.49273 14.5601C2.07273 16.1801 2.07273 18.8201 4.49273 20.4301C7.24273 22.2701 11.7527 22.2701 14.5027 20.4301C16.9227 18.8101 16.9227 16.1701 14.5027 14.5601C11.7627 12.7301 7.25273 12.7301 4.49273 14.5601Z" stroke="#005CAA" stroke-width="2" stroke-linecap="round" stroke-linejoin="round"/>
<path d="M18.6729 20.0001C19.3929 19.8501 20.0729 19.5601 20.6329 19.1301C22.1929 17.9601 22.1929 16.0301 20.6329 14.8601C20.0829 14.4401 19.4129 14.1601 18.7029 14.0001" stroke="#005CAA" stroke-width="2" stroke-linecap="round" stroke-linejoin="round"/>
</svg>
