<svg width="48" height="48" viewBox="0 0 48 48" fill="none" xmlns="http://www.w3.org/2000/svg">
<rect width="48" height="48" rx="24" fill="#F1FAE6"/>
<path d="M21.1601 22.87C21.0601 22.86 20.9401 22.86 20.8301 22.87C18.4501 22.79 16.5601 20.84 16.5601 18.44C16.5601 15.99 18.5401 14 21.0001 14C23.4501 14 25.4401 15.99 25.4401 18.44C25.4301 20.84 23.5401 22.79 21.1601 22.87Z" stroke="#34613A" stroke-width="1.5" stroke-linecap="round" stroke-linejoin="round"/>
<path d="M28.41 16C30.35 16 31.91 17.57 31.91 19.5C31.91 21.39 30.41 22.93 28.54 23C28.46 22.99 28.37 22.99 28.28 23" stroke="#34613A" stroke-width="1.5" stroke-linecap="round" stroke-linejoin="round"/>
<path d="M16.16 26.56C13.74 28.18 13.74 30.82 16.16 32.43C18.91 34.27 23.42 34.27 26.17 32.43C28.59 30.81 28.59 28.17 26.17 26.56C23.43 24.73 18.92 24.73 16.16 26.56Z" stroke="#34613A" stroke-width="1.5" stroke-linecap="round" stroke-linejoin="round"/>
<path d="M30.34 32C31.06 31.85 31.74 31.56 32.3 31.13C33.86 29.96 33.86 28.03 32.3 26.86C31.75 26.44 31.08 26.16 30.37 26" stroke="#34613A" stroke-width="1.5" stroke-linecap="round" stroke-linejoin="round"/>
</svg>
