<svg width="24" height="24" viewBox="0 0 24 24" fill="none" xmlns="http://www.w3.org/2000/svg">
<path d="M20 7.04003V16.96C20 18.48 19.86 19.56 19.5 20.33C19.5 20.34 19.49 20.36 19.48 20.37C19.26 20.65 18.97 20.79 18.63 20.79C18.1 20.79 17.46 20.44 16.77 19.7C15.95 18.82 14.69 18.89 13.97 19.85L12.96 21.19C12.56 21.73 12.03 22 11.5 22C10.97 22 10.44 21.73 10.04 21.19L9.02002 19.84C8.31002 18.89 7.05999 18.82 6.23999 19.69L6.22998 19.7C5.09998 20.91 4.10002 21.09 3.52002 20.37C3.51002 20.36 3.5 20.34 3.5 20.33C3.14 19.56 3 18.48 3 16.96V7.04003C3 5.52003 3.14 4.44003 3.5 3.67003C3.5 3.66003 3.50002 3.65003 3.52002 3.64003C4.09002 2.91003 5.09998 3.09003 6.22998 4.30003L6.23999 4.31003C7.05999 5.18003 8.31002 5.11003 9.02002 4.16003L10.04 2.81003C10.44 2.27003 10.97 2.00003 11.5 2.00003C12.03 2.00003 12.56 2.27003 12.96 2.81003L13.97 4.15003C14.69 5.11003 15.95 5.18003 16.77 4.30003C17.46 3.56003 18.1 3.21003 18.63 3.21003C18.97 3.21003 19.26 3.36003 19.48 3.64003C19.5 3.65003 19.5 3.66003 19.5 3.67003C19.86 4.44003 20 5.52003 20 7.04003Z" stroke="#5A7A7E" stroke-width="2" stroke-linecap="round" stroke-linejoin="round"/>
<path d="M8 10.25H16" stroke="#5A7A7E" stroke-width="2" stroke-linecap="round" stroke-linejoin="round"/>
<path d="M8 13.75H14" stroke="#5A7A7E" stroke-width="2" stroke-linecap="round" stroke-linejoin="round"/>
</svg>
