<svg width="24" height="24" viewBox="0 0 24 24" fill="none" xmlns="http://www.w3.org/2000/svg">
<path d="M18.91 14.6926C18.91 15.9826 19.97 17.0326 21.26 17.0326C21.26 20.7826 20.32 21.7226 16.57 21.7226H7.19C3.44 21.7226 2.5 20.7826 2.5 17.0326V16.5726C3.79 16.5726 4.85 15.5126 4.85 14.2226C4.85 12.9326 3.79 11.8726 2.5 11.8726V11.4126C2.51 7.66256 3.44 6.72256 7.19 6.72256H16.56C20.31 6.72256 21.25 7.66256 21.25 11.4126V12.3526C19.96 12.3526 18.91 13.3926 18.91 14.6926Z" stroke="#FF5070" stroke-width="2" stroke-linecap="round" stroke-linejoin="round"/>
<path d="M16.2111 6.72256H7.12109L10.0511 3.79256C12.4411 1.40256 13.6411 1.40256 16.0311 3.79256L16.6311 4.39256C16.0011 5.02256 15.8511 5.95256 16.2111 6.72256Z" stroke="#FF5070" stroke-width="2" stroke-linecap="round" stroke-linejoin="round"/>
<path d="M9.87891 6.72272L9.87891 21.7227" stroke="#FF5070" stroke-width="2" stroke-linecap="round" stroke-linejoin="round" stroke-dasharray="5 5"/>
</svg>
