<svg width="24" height="24" viewBox="0 0 24 24" fill="none" xmlns="http://www.w3.org/2000/svg">
<path d="M18.1399 21.6201C17.2599 21.8801 16.2199 22.0001 14.9999 22.0001H8.99986C7.77986 22.0001 6.73986 21.8801 5.85986 21.6201C6.07986 19.0201 8.74986 16.9701 11.9999 16.9701C15.2499 16.9701 17.9199 19.0201 18.1399 21.6201Z" stroke="#34613A" stroke-width="1.5" stroke-linecap="round" stroke-linejoin="round"/>
<path d="M15 2.00009H9C4 2.00009 2 4.00009 2 9.00009V15.0001C2 18.7801 3.14 20.8501 5.86 21.6201C6.08 19.0201 8.75 16.9701 12 16.9701C15.25 16.9701 17.92 19.0201 18.14 21.6201C20.86 20.8501 22 18.7801 22 15.0001V9.00009C22 4.00009 20 2.00009 15 2.00009ZM12 14.1701C10.02 14.1701 8.42 12.5601 8.42 10.5801C8.42 8.60011 10.02 7.00009 12 7.00009C13.98 7.00009 15.58 8.60011 15.58 10.5801C15.58 12.5601 13.98 14.1701 12 14.1701Z" stroke="#34613A" stroke-width="1.5" stroke-linecap="round" stroke-linejoin="round"/>
<path d="M15.5799 10.5801C15.5799 12.5601 13.9799 14.1701 11.9999 14.1701C10.0199 14.1701 8.41992 12.5601 8.41992 10.5801C8.41992 8.60011 10.0199 7.00009 11.9999 7.00009C13.9799 7.00009 15.5799 8.60011 15.5799 10.5801Z" stroke="#34613A" stroke-width="1.5" stroke-linecap="round" stroke-linejoin="round"/>
</svg>
