<svg width="80" height="81" viewBox="0 0 80 81" fill="none" xmlns="http://www.w3.org/2000/svg">
<path d="M40.0007 40.5001C49.2054 40.5001 56.6673 33.0382 56.6673 23.8334C56.6673 14.6287 49.2054 7.16675 40.0007 7.16675C30.7959 7.16675 23.334 14.6287 23.334 23.8334C23.334 33.0382 30.7959 40.5001 40.0007 40.5001Z" stroke="#5A7A7E" stroke-width="3.5" stroke-linecap="round" stroke-linejoin="round"/>
<path d="M11.3672 73.8333C11.3672 60.9333 24.2005 50.5 40.0005 50.5C43.2005 50.5 46.3005 50.9333 49.2005 51.7333" stroke="#5A7A7E" stroke-width="3.5" stroke-linecap="round" stroke-linejoin="round"/>
<path d="M73.3327 60.5001C73.3327 61.5667 73.1994 62.6001 72.9327 63.6001C72.6327 64.9334 72.0994 66.2334 71.3994 67.3667C69.0994 71.2334 64.866 73.8334 59.9993 73.8334C56.566 73.8334 53.466 72.5333 51.1327 70.4C50.1327 69.5333 49.266 68.5001 48.5993 67.3667C47.366 65.3667 46.666 63.0001 46.666 60.5001C46.666 56.9001 48.0994 53.6002 50.4327 51.2002C52.866 48.7002 56.266 47.1667 59.9993 47.1667C63.9327 47.1667 67.4994 48.8668 69.8994 51.6001C72.0327 53.9668 73.3327 57.1001 73.3327 60.5001Z" stroke="#5A7A7E" stroke-width="3.5" stroke-miterlimit="10" stroke-linecap="round" stroke-linejoin="round"/>
<path d="M63.4337 56.9668L56.4004 64.0001" stroke="#5A7A7E" stroke-width="3.5" stroke-miterlimit="10" stroke-linecap="round" stroke-linejoin="round"/>
<path d="M56.4668 57.0334L63.5334 64.0667" stroke="#5A7A7E" stroke-width="3.5" stroke-miterlimit="10" stroke-linecap="round" stroke-linejoin="round"/>
</svg>
