<svg width="18" height="19" viewBox="0 0 18 19" fill="none" xmlns="http://www.w3.org/2000/svg">
<path d="M13.6045 16.715C12.9445 16.91 12.1645 17 11.2495 17H6.74953C5.83453 17 5.05453 16.91 4.39453 16.715C4.55953 14.765 6.56203 13.2275 8.99953 13.2275C11.437 13.2275 13.4395 14.765 13.6045 16.715Z" stroke="#5A7A7E" stroke-width="1.5" stroke-linecap="round" stroke-linejoin="round"/>
<path d="M11.25 2H6.75C3 2 1.5 3.5 1.5 7.25V11.75C1.5 14.585 2.355 16.1375 4.395 16.715C4.56 14.765 6.5625 13.2275 9 13.2275C11.4375 13.2275 13.44 14.765 13.605 16.715C15.645 16.1375 16.5 14.585 16.5 11.75V7.25C16.5 3.5 15 2 11.25 2ZM9 11.1275C7.515 11.1275 6.315 9.92001 6.315 8.43501C6.315 6.95001 7.515 5.75 9 5.75C10.485 5.75 11.685 6.95001 11.685 8.43501C11.685 9.92001 10.485 11.1275 9 11.1275Z" stroke="#5A7A7E" stroke-width="1.5" stroke-linecap="round" stroke-linejoin="round"/>
<path d="M11.6845 8.43501C11.6845 9.92001 10.4845 11.1275 8.99945 11.1275C7.51445 11.1275 6.31445 9.92001 6.31445 8.43501C6.31445 6.95001 7.51445 5.75 8.99945 5.75C10.4845 5.75 11.6845 6.95001 11.6845 8.43501Z" stroke="#5A7A7E" stroke-width="1.5" stroke-linecap="round" stroke-linejoin="round"/>
</svg>
