<svg width="24" height="24" viewBox="0 0 24 24" fill="none" xmlns="http://www.w3.org/2000/svg">
<path d="M13 11.1501H7" stroke="#FF5070" stroke-width="2" stroke-linecap="round" stroke-linejoin="round"/>
<path d="M2 11.1501V6.53009C2 4.49009 3.65 2.84009 5.69 2.84009H11.31C13.35 2.84009 15 4.11009 15 6.15009" stroke="#FF5070" stroke-width="2" stroke-linecap="round" stroke-linejoin="round"/>
<path d="M17.48 12.2001C16.98 12.6801 16.74 13.4201 16.94 14.1801C17.19 15.1101 18.11 15.7001 19.07 15.7001H20V17.1501C20 19.3601 18.21 21.1501 16 21.1501H6C3.79 21.1501 2 19.3601 2 17.1501V10.1501C2 7.94009 3.79 6.15009 6 6.15009H16C18.2 6.15009 20 7.95009 20 10.1501V11.6H18.92C18.36 11.6 17.85 11.8201 17.48 12.2001Z" stroke="#FF5070" stroke-width="2" stroke-linecap="round" stroke-linejoin="round"/>
<path d="M22.0002 12.6201V14.6801C22.0002 15.2401 21.5402 15.7001 20.9702 15.7001H19.0402C17.9602 15.7001 16.9702 14.9101 16.8802 13.8301C16.8202 13.2001 17.0602 12.6101 17.4802 12.2001C17.8502 11.8201 18.3602 11.6 18.9202 11.6H20.9702C21.5402 11.6 22.0002 12.0601 22.0002 12.6201Z" stroke="#FF5070" stroke-width="2" stroke-linecap="round" stroke-linejoin="round"/>
</svg>
