<svg width="39" height="38" viewBox="0 0 39 38" fill="none" xmlns="http://www.w3.org/2000/svg">
<g clip-path="url(#clip0_172_1519)">
<path d="M38.4477 20.4248H31.6603C25.7314 20.4248 20.9253 25.231 20.9253 31.1598V37.9472C30.2827 37.2533 37.7538 29.7822 38.4477 20.4248Z" fill="#34613A"/>
<path d="M18.0751 37.9472V31.1598C18.0751 25.231 13.2689 20.4248 7.3401 20.4248H0.552734C1.24655 29.7822 8.7177 37.2533 18.0751 37.9472Z" fill="#34613A"/>
<path d="M38.4477 17.5748C37.7538 8.21739 30.2827 0.746247 20.9253 0.0524292V6.83979C20.9253 12.7686 25.7314 17.5748 31.6603 17.5748H38.4477Z" fill="#34613A"/>
<path d="M18.0751 0.0524292C8.7177 0.746247 1.24655 8.21739 0.552734 17.5748H7.3401C13.2689 17.5748 18.0751 12.7686 18.0751 6.83979V0.0524292Z" fill="#34613A"/>
<path d="M13.4038 18.9998C16.0377 17.6838 18.1842 15.5373 19.5001 12.9034C20.8162 15.5373 22.9626 17.6838 25.5966 18.9998C22.9626 20.3158 20.8162 22.4623 19.5001 25.0962C18.1842 22.4623 16.0377 20.3158 13.4038 18.9998Z" fill="#FBAD48"/>
</g>
<defs>
<clipPath id="clip0_172_1519">
<rect width="38" height="38" fill="white" transform="translate(0.5)"/>
</clipPath>
</defs>
</svg>
